P3 
2 
2 
255
254 254 253 
248 249 247
230 241 250 25 27 31